<svg xmlns="http://www.w3.org/2000/svg" xmlns:xlink="http://www.w3.org/1999/xlink" width="50" zoomAndPan="magnify" viewBox="0 0 37.5 37.499999" height="50" preserveAspectRatio="xMidYMid meet" version="1.0"><defs><clipPath id="9df59fbb07"><path d="M 23 2.035156 L 37 2.035156 L 37 15 L 23 15 Z M 23 2.035156 " clip-rule="nonzero"/></clipPath><clipPath id="2cedb1b184"><path d="M 14 31 L 24 31 L 24 36.082031 L 14 36.082031 Z M 14 31 " clip-rule="nonzero"/></clipPath><clipPath id="347f2fe3e9"><path d="M 23 2.035156 L 37 2.035156 L 37 15 L 23 15 Z M 23 2.035156 " clip-rule="nonzero"/></clipPath><clipPath id="eacaf23d01"><path d="M 14 31 L 24 31 L 24 36.082031 L 14 36.082031 Z M 14 31 " clip-rule="nonzero"/></clipPath></defs><g clip-path="url(#9df59fbb07)"><path fill="#5b6866" d="M 34.761719 5.9375 L 32.222656 5.9375 L 32.222656 3.402344 C 32.222656 2.648438 31.609375 2.035156 30.855469 2.035156 L 29.378906 2.035156 C 28.652344 2.035156 28.039062 2.648438 28.039062 3.402344 L 28.039062 5.9375 L 25.222656 5.9375 C 24.472656 5.9375 23.859375 6.550781 23.859375 7.304688 L 23.859375 9.0625 C 23.859375 9.816406 24.472656 10.429688 25.222656 10.429688 L 28.039062 10.429688 L 28.039062 12.964844 C 28.039062 13.71875 28.652344 14.332031 29.40625 14.332031 L 30.882812 14.332031 C 31.636719 14.332031 32.25 13.71875 32.25 12.964844 L 32.25 10.398438 L 34.789062 10.398438 C 35.539062 10.398438 36.152344 9.785156 36.152344 9.035156 L 36.152344 7.277344 C 36.125 6.550781 35.511719 5.9375 34.761719 5.9375 Z M 34.761719 5.9375 " fill-opacity="1" fill-rule="nonzero"/></g><path fill="#5b6866" d="M 3.894531 24.925781 C 4.117188 23.671875 4.703125 22.25 5.929688 20.855469 C 8.214844 18.289062 11.171875 18.179688 13.179688 18.679688 C 13.542969 18.347656 13.988281 18.125 14.433594 18.011719 C 14.519531 17.984375 14.601562 17.984375 14.683594 17.957031 C 16.328125 17.816406 17.417969 18.875 17.945312 20.1875 C 18.253906 20.382812 18.617188 20.632812 18.949219 20.996094 C 20.484375 20.046875 23.132812 18.765625 25.894531 19.183594 C 30.132812 19.851562 31.246094 23.308594 31.386719 23.839844 C 31.554688 24.425781 31.664062 25.316406 31.527344 26.265625 C 34.984375 22.5 35.570312 19.796875 35.652344 19.320312 C 35.847656 18.792969 36.992188 15.027344 34.675781 11.515625 L 33.339844 11.515625 L 33.339844 12.9375 C 33.339844 14.304688 32.222656 15.417969 30.855469 15.417969 L 29.378906 15.417969 C 28.039062 15.417969 26.925781 14.304688 26.925781 12.9375 L 26.925781 11.515625 L 25.222656 11.515625 C 23.859375 11.515625 22.742188 10.398438 22.742188 9.035156 L 22.742188 7.613281 C 20.597656 8.253906 18.921875 9.285156 18.28125 9.730469 C 16.859375 8.78125 10.503906 4.933594 4.871094 8.617188 C -1.179688 12.574219 0.660156 18.625 0.910156 19.320312 C 0.96875 19.742188 1.441406 21.859375 3.894531 24.925781 Z M 3.894531 24.925781 " fill-opacity="1" fill-rule="nonzero"/><g clip-path="url(#2cedb1b184)"><path fill="#5b6866" d="M 21.765625 31.8125 C 20.511719 32.59375 19.257812 32.871094 18.226562 32.871094 C 17.304688 33.457031 16.300781 33.625 15.519531 33.597656 C 15.269531 33.710938 15.019531 33.792969 14.742188 33.847656 L 17.890625 35.941406 C 17.976562 35.996094 18.085938 36.023438 18.199219 36.023438 C 18.226562 36.023438 18.226562 36.023438 18.253906 36.023438 C 18.28125 36.023438 18.28125 36.023438 18.308594 36.023438 C 18.421875 36.023438 18.53125 35.996094 18.617188 35.941406 L 23.132812 32.929688 C 22.574219 32.679688 22.128906 32.257812 21.765625 31.8125 Z M 21.765625 31.8125 " fill-opacity="1" fill-rule="nonzero"/></g><path fill="#5b6866" d="M 10.699219 25.429688 C 10.613281 25.316406 9.890625 24.480469 9.023438 24.480469 C 8.71875 24.480469 8.273438 24.59375 7.882812 25.121094 C 7.378906 25.789062 7.742188 26.597656 8.273438 27.046875 C 8.496094 27.242188 8.859375 27.210938 9.054688 26.988281 C 9.246094 26.765625 9.21875 26.402344 8.996094 26.210938 C 8.996094 26.210938 8.691406 25.902344 8.773438 25.761719 C 8.914062 25.59375 8.996094 25.566406 9.023438 25.566406 C 9.246094 25.566406 9.609375 25.875 9.804688 26.070312 C 9.917969 26.238281 10.140625 26.683594 10.027344 27.046875 C 9.945312 27.324219 9.667969 27.574219 9.246094 27.769531 C 8.886719 27.9375 8.550781 27.9375 8.273438 27.796875 C 7.660156 27.519531 7.296875 26.65625 7.183594 26.347656 C 7.101562 26.042969 6.792969 25.902344 6.488281 25.984375 C 6.179688 26.070312 6.042969 26.375 6.125 26.683594 C 6.179688 26.851562 6.65625 28.273438 7.796875 28.800781 C 8.078125 28.941406 8.382812 28.996094 8.691406 28.996094 C 9.023438 28.996094 9.359375 28.914062 9.695312 28.773438 C 10.476562 28.441406 10.949219 27.964844 11.117188 27.324219 C 11.367188 26.433594 10.78125 25.539062 10.699219 25.429688 Z M 10.699219 25.429688 " fill-opacity="1" fill-rule="nonzero"/><path fill="#5b6866" d="M 25.253906 32.289062 C 27.203125 32.289062 28.542969 31.757812 29.183594 31.449219 C 29.378906 31.617188 29.683594 31.785156 30.019531 31.8125 C 30.328125 31.839844 30.746094 31.730469 31.191406 31.226562 C 32.027344 30.253906 31.636719 29.136719 31.332031 28.691406 C 31.300781 28.664062 31.300781 28.636719 31.273438 28.636719 C 30.996094 28.328125 30.492188 27.964844 29.824219 27.769531 C 30.882812 26.179688 30.382812 24.230469 30.355469 24.144531 C 30.328125 24.007812 29.519531 20.855469 25.753906 20.269531 C 22.742188 19.796875 19.789062 21.691406 18.785156 22.445312 C 18.140625 21.523438 17.472656 21.105469 17.054688 20.9375 C 16.832031 20.101562 16.164062 18.933594 14.824219 19.070312 C 14.796875 19.070312 14.769531 19.070312 14.742188 19.097656 C 14.40625 19.183594 13.875 19.460938 13.597656 19.992188 C 12.316406 19.546875 9.21875 18.902344 6.792969 21.636719 C 3.699219 25.09375 5.34375 28.664062 5.398438 28.773438 C 5.457031 28.914062 7.15625 32.707031 11.03125 32.902344 C 11.199219 32.929688 11.785156 32.984375 12.480469 32.984375 C 13.402344 32.984375 14.546875 32.871094 15.355469 32.484375 C 15.828125 32.539062 16.914062 32.539062 17.917969 31.757812 C 18.03125 31.757812 18.113281 31.757812 18.226562 31.757812 C 19.175781 31.757812 20.539062 31.507812 21.933594 30.335938 C 21.988281 30.28125 22.074219 30.222656 22.128906 30.167969 C 22.4375 31.144531 23.328125 32.289062 25.253906 32.289062 C 25.222656 32.289062 25.253906 32.289062 25.253906 32.289062 Z M 15.328125 31.339844 C 15.1875 31.3125 15.046875 31.339844 14.90625 31.421875 C 14.015625 31.980469 11.867188 31.898438 11.117188 31.785156 C 11.117188 31.785156 11.089844 31.785156 11.089844 31.785156 C 7.910156 31.644531 6.402344 28.328125 6.402344 28.273438 C 6.347656 28.160156 5.011719 25.234375 7.601562 22.332031 C 8.773438 21.023438 10.140625 20.660156 11.253906 20.660156 C 12.566406 20.660156 13.570312 21.164062 13.652344 21.191406 C 13.902344 21.328125 14.210938 21.21875 14.378906 20.996094 C 14.460938 20.910156 14.519531 20.800781 14.519531 20.660156 C 14.546875 20.324219 14.824219 20.1875 14.9375 20.160156 C 14.9375 20.160156 14.9375 20.160156 14.964844 20.160156 C 15.746094 20.160156 15.996094 21.441406 15.996094 21.441406 C 16.023438 21.664062 16.21875 21.859375 16.441406 21.886719 C 16.46875 21.886719 17.945312 22.277344 18.8125 25.207031 C 19.675781 28.1875 18.03125 29.945312 17.976562 30 C 17.945312 30.027344 17.917969 30.058594 17.890625 30.085938 C 16.945312 31.644531 15.382812 31.367188 15.328125 31.339844 Z M 23.050781 29.304688 C 23.273438 26.65625 26.285156 26.152344 26.421875 26.125 C 26.730469 26.070312 26.925781 25.789062 26.898438 25.484375 C 26.839844 25.175781 26.5625 24.980469 26.257812 25.011719 C 25.363281 25.148438 23.96875 25.679688 22.992188 26.765625 C 22.714844 26.015625 22.242188 25.511719 22.214844 25.484375 C 21.988281 25.261719 21.65625 25.261719 21.433594 25.457031 C 21.210938 25.679688 21.179688 26.015625 21.40625 26.238281 C 21.40625 26.238281 22.128906 27.019531 22.074219 27.964844 C 22.046875 28.496094 21.738281 28.996094 21.210938 29.472656 C 20.402344 30.140625 19.621094 30.445312 18.949219 30.558594 C 19.230469 30.222656 19.730469 29.472656 20.011719 28.355469 C 20.429688 28.246094 20.679688 28.246094 20.679688 28.246094 C 20.984375 28.246094 21.238281 27.964844 21.210938 27.660156 C 21.179688 27.351562 20.957031 27.101562 20.625 27.128906 C 20.597656 27.128906 20.429688 27.128906 20.148438 27.183594 C 20.175781 26.488281 20.09375 25.734375 19.871094 24.871094 C 19.703125 24.3125 19.507812 23.8125 19.3125 23.394531 C 20.09375 22.808594 22.882812 20.910156 25.558594 21.328125 C 28.570312 21.804688 29.210938 24.257812 29.238281 24.367188 C 29.238281 24.398438 29.769531 26.375 28.457031 27.546875 C 27.789062 27.601562 27.066406 27.796875 26.285156 28.300781 C 26.03125 28.46875 25.949219 28.800781 26.117188 29.082031 C 26.285156 29.332031 26.617188 29.414062 26.898438 29.25 C 28.875 27.992188 30.214844 29.082031 30.4375 29.277344 C 30.523438 29.414062 30.773438 29.945312 30.355469 30.445312 C 30.269531 30.558594 30.160156 30.613281 30.105469 30.613281 C 29.992188 30.613281 29.824219 30.445312 29.769531 30.363281 C 29.683594 30.253906 29.546875 30.167969 29.40625 30.140625 C 29.265625 30.113281 29.101562 30.140625 28.988281 30.222656 C 28.988281 30.222656 27.679688 31.117188 25.28125 31.117188 C 23.328125 31.171875 23.105469 29.609375 23.050781 29.304688 Z M 23.050781 29.304688 " fill-opacity="1" fill-rule="nonzero"/><path fill="#5b6866" d="M 13.792969 23.699219 C 13.570312 23.921875 13.570312 24.285156 13.792969 24.480469 C 13.902344 24.59375 13.960938 24.730469 13.960938 24.871094 C 13.960938 25.011719 13.902344 25.148438 13.792969 25.261719 C 13.570312 25.484375 13.570312 25.820312 13.792969 26.042969 C 13.902344 26.152344 14.042969 26.210938 14.183594 26.210938 C 14.324219 26.210938 14.460938 26.152344 14.574219 26.042969 C 14.878906 25.734375 15.074219 25.316406 15.074219 24.871094 C 15.074219 24.425781 14.90625 24.007812 14.574219 23.699219 C 14.378906 23.476562 14.015625 23.476562 13.792969 23.699219 Z M 13.792969 23.699219 " fill-opacity="1" fill-rule="nonzero"/><path fill="#5b6866" d="M 13.792969 27.378906 C 13.570312 27.601562 13.570312 27.964844 13.792969 28.160156 C 13.902344 28.273438 13.960938 28.410156 13.960938 28.550781 C 13.960938 28.691406 13.902344 28.828125 13.792969 28.941406 C 13.570312 29.164062 13.570312 29.5 13.792969 29.722656 C 13.902344 29.832031 14.042969 29.890625 14.183594 29.890625 C 14.324219 29.890625 14.460938 29.832031 14.574219 29.722656 C 14.878906 29.414062 15.074219 28.996094 15.074219 28.550781 C 15.074219 28.105469 14.90625 27.6875 14.574219 27.378906 C 14.378906 27.15625 14.015625 27.15625 13.792969 27.378906 Z M 13.792969 27.378906 " fill-opacity="1" fill-rule="nonzero"/><path fill="#5b6866" d="M 18.199219 26.765625 C 18.199219 26.210938 17.976562 25.679688 17.585938 25.289062 C 17.363281 25.066406 17 25.066406 16.804688 25.289062 C 16.582031 25.511719 16.582031 25.875 16.804688 26.070312 C 17 26.265625 17.109375 26.515625 17.109375 26.765625 C 17.109375 27.019531 17 27.269531 16.804688 27.464844 C 16.582031 27.6875 16.582031 28.019531 16.804688 28.246094 C 16.914062 28.355469 17.054688 28.410156 17.195312 28.410156 C 17.332031 28.410156 17.472656 28.355469 17.585938 28.246094 C 17.976562 27.855469 18.199219 27.324219 18.199219 26.765625 Z M 18.199219 26.765625 " fill-opacity="1" fill-rule="nonzero"/><g clip-path="url(#347f2fe3e9)"><path fill="#5b6866" d="M 34.761719 5.9375 L 32.222656 5.9375 L 32.222656 3.402344 C 32.222656 2.648438 31.609375 2.035156 30.855469 2.035156 L 29.378906 2.035156 C 28.652344 2.035156 28.039062 2.648438 28.039062 3.402344 L 28.039062 5.9375 L 25.222656 5.9375 C 24.472656 5.9375 23.859375 6.550781 23.859375 7.304688 L 23.859375 9.0625 C 23.859375 9.816406 24.472656 10.429688 25.222656 10.429688 L 28.039062 10.429688 L 28.039062 12.964844 C 28.039062 13.71875 28.652344 14.332031 29.40625 14.332031 L 30.882812 14.332031 C 31.636719 14.332031 32.25 13.71875 32.25 12.964844 L 32.25 10.398438 L 34.789062 10.398438 C 35.539062 10.398438 36.152344 9.785156 36.152344 9.035156 L 36.152344 7.277344 C 36.125 6.550781 35.511719 5.9375 34.761719 5.9375 Z M 34.761719 5.9375 " fill-opacity="1" fill-rule="nonzero"/></g><path fill="#5b6866" d="M 3.894531 24.925781 C 4.117188 23.671875 4.703125 22.25 5.929688 20.855469 C 8.214844 18.289062 11.171875 18.179688 13.179688 18.679688 C 13.542969 18.347656 13.988281 18.125 14.433594 18.011719 C 14.519531 17.984375 14.601562 17.984375 14.683594 17.957031 C 16.328125 17.816406 17.417969 18.875 17.945312 20.1875 C 18.253906 20.382812 18.617188 20.632812 18.949219 20.996094 C 20.484375 20.046875 23.132812 18.765625 25.894531 19.183594 C 30.132812 19.851562 31.246094 23.308594 31.386719 23.839844 C 31.554688 24.425781 31.664062 25.316406 31.527344 26.265625 C 34.984375 22.5 35.570312 19.796875 35.652344 19.320312 C 35.847656 18.792969 36.992188 15.027344 34.675781 11.515625 L 33.339844 11.515625 L 33.339844 12.9375 C 33.339844 14.304688 32.222656 15.417969 30.855469 15.417969 L 29.378906 15.417969 C 28.039062 15.417969 26.925781 14.304688 26.925781 12.9375 L 26.925781 11.515625 L 25.222656 11.515625 C 23.859375 11.515625 22.742188 10.398438 22.742188 9.035156 L 22.742188 7.613281 C 20.597656 8.253906 18.921875 9.285156 18.28125 9.730469 C 16.859375 8.78125 10.503906 4.933594 4.871094 8.617188 C -1.179688 12.574219 0.660156 18.625 0.910156 19.320312 C 0.96875 19.742188 1.441406 21.859375 3.894531 24.925781 Z M 3.894531 24.925781 " fill-opacity="1" fill-rule="nonzero"/><g clip-path="url(#eacaf23d01)"><path fill="#5b6866" d="M 21.765625 31.8125 C 20.511719 32.59375 19.257812 32.871094 18.226562 32.871094 C 17.304688 33.457031 16.300781 33.625 15.519531 33.597656 C 15.269531 33.710938 15.019531 33.792969 14.742188 33.847656 L 17.890625 35.941406 C 17.976562 35.996094 18.085938 36.023438 18.199219 36.023438 C 18.226562 36.023438 18.226562 36.023438 18.253906 36.023438 C 18.28125 36.023438 18.28125 36.023438 18.308594 36.023438 C 18.421875 36.023438 18.53125 35.996094 18.617188 35.941406 L 23.132812 32.929688 C 22.574219 32.679688 22.128906 32.257812 21.765625 31.8125 Z M 21.765625 31.8125 " fill-opacity="1" fill-rule="nonzero"/></g><path fill="#5b6866" d="M 10.699219 25.429688 C 10.613281 25.316406 9.890625 24.480469 9.023438 24.480469 C 8.71875 24.480469 8.273438 24.59375 7.882812 25.121094 C 7.378906 25.789062 7.742188 26.597656 8.273438 27.046875 C 8.496094 27.242188 8.859375 27.210938 9.054688 26.988281 C 9.246094 26.765625 9.21875 26.402344 8.996094 26.210938 C 8.996094 26.210938 8.691406 25.902344 8.773438 25.761719 C 8.914062 25.59375 8.996094 25.566406 9.023438 25.566406 C 9.246094 25.566406 9.609375 25.875 9.804688 26.070312 C 9.917969 26.238281 10.140625 26.683594 10.027344 27.046875 C 9.945312 27.324219 9.667969 27.574219 9.246094 27.769531 C 8.886719 27.9375 8.550781 27.9375 8.273438 27.796875 C 7.660156 27.519531 7.296875 26.65625 7.183594 26.347656 C 7.101562 26.042969 6.792969 25.902344 6.488281 25.984375 C 6.179688 26.070312 6.042969 26.375 6.125 26.683594 C 6.179688 26.851562 6.65625 28.273438 7.796875 28.800781 C 8.078125 28.941406 8.382812 28.996094 8.691406 28.996094 C 9.023438 28.996094 9.359375 28.914062 9.695312 28.773438 C 10.476562 28.441406 10.949219 27.964844 11.117188 27.324219 C 11.367188 26.433594 10.78125 25.539062 10.699219 25.429688 Z M 10.699219 25.429688 " fill-opacity="1" fill-rule="nonzero"/><path fill="#5b6866" d="M 25.253906 32.289062 C 27.203125 32.289062 28.542969 31.757812 29.183594 31.449219 C 29.378906 31.617188 29.683594 31.785156 30.019531 31.8125 C 30.328125 31.839844 30.746094 31.730469 31.191406 31.226562 C 32.027344 30.253906 31.636719 29.136719 31.332031 28.691406 C 31.300781 28.664062 31.300781 28.636719 31.273438 28.636719 C 30.996094 28.328125 30.492188 27.964844 29.824219 27.769531 C 30.882812 26.179688 30.382812 24.230469 30.355469 24.144531 C 30.328125 24.007812 29.519531 20.855469 25.753906 20.269531 C 22.742188 19.796875 19.789062 21.691406 18.785156 22.445312 C 18.140625 21.523438 17.472656 21.105469 17.054688 20.9375 C 16.832031 20.101562 16.164062 18.933594 14.824219 19.070312 C 14.796875 19.070312 14.769531 19.070312 14.742188 19.097656 C 14.40625 19.183594 13.875 19.460938 13.597656 19.992188 C 12.316406 19.546875 9.21875 18.902344 6.792969 21.636719 C 3.699219 25.09375 5.34375 28.664062 5.398438 28.773438 C 5.457031 28.914062 7.15625 32.707031 11.03125 32.902344 C 11.199219 32.929688 11.785156 32.984375 12.480469 32.984375 C 13.402344 32.984375 14.546875 32.871094 15.355469 32.484375 C 15.828125 32.539062 16.914062 32.539062 17.917969 31.757812 C 18.03125 31.757812 18.113281 31.757812 18.226562 31.757812 C 19.175781 31.757812 20.539062 31.507812 21.933594 30.335938 C 21.988281 30.28125 22.074219 30.222656 22.128906 30.167969 C 22.4375 31.144531 23.328125 32.289062 25.253906 32.289062 C 25.222656 32.289062 25.253906 32.289062 25.253906 32.289062 Z M 15.328125 31.339844 C 15.1875 31.3125 15.046875 31.339844 14.90625 31.421875 C 14.015625 31.980469 11.867188 31.898438 11.117188 31.785156 C 11.117188 31.785156 11.089844 31.785156 11.089844 31.785156 C 7.910156 31.644531 6.402344 28.328125 6.402344 28.273438 C 6.347656 28.160156 5.011719 25.234375 7.601562 22.332031 C 8.773438 21.023438 10.140625 20.660156 11.253906 20.660156 C 12.566406 20.660156 13.570312 21.164062 13.652344 21.191406 C 13.902344 21.328125 14.210938 21.21875 14.378906 20.996094 C 14.460938 20.910156 14.519531 20.800781 14.519531 20.660156 C 14.546875 20.324219 14.824219 20.1875 14.9375 20.160156 C 14.9375 20.160156 14.9375 20.160156 14.964844 20.160156 C 15.746094 20.160156 15.996094 21.441406 15.996094 21.441406 C 16.023438 21.664062 16.21875 21.859375 16.441406 21.886719 C 16.46875 21.886719 17.945312 22.277344 18.8125 25.207031 C 19.675781 28.1875 18.03125 29.945312 17.976562 30 C 17.945312 30.027344 17.917969 30.058594 17.890625 30.085938 C 16.945312 31.644531 15.382812 31.367188 15.328125 31.339844 Z M 23.050781 29.304688 C 23.273438 26.65625 26.285156 26.152344 26.421875 26.125 C 26.730469 26.070312 26.925781 25.789062 26.898438 25.484375 C 26.839844 25.175781 26.5625 24.980469 26.257812 25.011719 C 25.363281 25.148438 23.96875 25.679688 22.992188 26.765625 C 22.714844 26.015625 22.242188 25.511719 22.214844 25.484375 C 21.988281 25.261719 21.65625 25.261719 21.433594 25.457031 C 21.210938 25.679688 21.179688 26.015625 21.40625 26.238281 C 21.40625 26.238281 22.128906 27.019531 22.074219 27.964844 C 22.046875 28.496094 21.738281 28.996094 21.210938 29.472656 C 20.402344 30.140625 19.621094 30.445312 18.949219 30.558594 C 19.230469 30.222656 19.730469 29.472656 20.011719 28.355469 C 20.429688 28.246094 20.679688 28.246094 20.679688 28.246094 C 20.984375 28.246094 21.238281 27.964844 21.210938 27.660156 C 21.179688 27.351562 20.957031 27.101562 20.625 27.128906 C 20.597656 27.128906 20.429688 27.128906 20.148438 27.183594 C 20.175781 26.488281 20.09375 25.734375 19.871094 24.871094 C 19.703125 24.3125 19.507812 23.8125 19.3125 23.394531 C 20.09375 22.808594 22.882812 20.910156 25.558594 21.328125 C 28.570312 21.804688 29.210938 24.257812 29.238281 24.367188 C 29.238281 24.398438 29.769531 26.375 28.457031 27.546875 C 27.789062 27.601562 27.066406 27.796875 26.285156 28.300781 C 26.03125 28.46875 25.949219 28.800781 26.117188 29.082031 C 26.285156 29.332031 26.617188 29.414062 26.898438 29.25 C 28.875 27.992188 30.214844 29.082031 30.4375 29.277344 C 30.523438 29.414062 30.773438 29.945312 30.355469 30.445312 C 30.269531 30.558594 30.160156 30.613281 30.105469 30.613281 C 29.992188 30.613281 29.824219 30.445312 29.769531 30.363281 C 29.683594 30.253906 29.546875 30.167969 29.40625 30.140625 C 29.265625 30.113281 29.101562 30.140625 28.988281 30.222656 C 28.988281 30.222656 27.679688 31.117188 25.28125 31.117188 C 23.328125 31.171875 23.105469 29.609375 23.050781 29.304688 Z M 23.050781 29.304688 " fill-opacity="1" fill-rule="nonzero"/><path fill="#5b6866" d="M 13.792969 23.699219 C 13.570312 23.921875 13.570312 24.285156 13.792969 24.480469 C 13.902344 24.59375 13.960938 24.730469 13.960938 24.871094 C 13.960938 25.011719 13.902344 25.148438 13.792969 25.261719 C 13.570312 25.484375 13.570312 25.820312 13.792969 26.042969 C 13.902344 26.152344 14.042969 26.210938 14.183594 26.210938 C 14.324219 26.210938 14.460938 26.152344 14.574219 26.042969 C 14.878906 25.734375 15.074219 25.316406 15.074219 24.871094 C 15.074219 24.425781 14.90625 24.007812 14.574219 23.699219 C 14.378906 23.476562 14.015625 23.476562 13.792969 23.699219 Z M 13.792969 23.699219 " fill-opacity="1" fill-rule="nonzero"/><path fill="#5b6866" d="M 13.792969 27.378906 C 13.570312 27.601562 13.570312 27.964844 13.792969 28.160156 C 13.902344 28.273438 13.960938 28.410156 13.960938 28.550781 C 13.960938 28.691406 13.902344 28.828125 13.792969 28.941406 C 13.570312 29.164062 13.570312 29.5 13.792969 29.722656 C 13.902344 29.832031 14.042969 29.890625 14.183594 29.890625 C 14.324219 29.890625 14.460938 29.832031 14.574219 29.722656 C 14.878906 29.414062 15.074219 28.996094 15.074219 28.550781 C 15.074219 28.105469 14.90625 27.6875 14.574219 27.378906 C 14.378906 27.15625 14.015625 27.15625 13.792969 27.378906 Z M 13.792969 27.378906 " fill-opacity="1" fill-rule="nonzero"/><path fill="#5b6866" d="M 18.199219 26.765625 C 18.199219 26.210938 17.976562 25.679688 17.585938 25.289062 C 17.363281 25.066406 17 25.066406 16.804688 25.289062 C 16.582031 25.511719 16.582031 25.875 16.804688 26.070312 C 17 26.265625 17.109375 26.515625 17.109375 26.765625 C 17.109375 27.019531 17 27.269531 16.804688 27.464844 C 16.582031 27.6875 16.582031 28.019531 16.804688 28.246094 C 16.914062 28.355469 17.054688 28.410156 17.195312 28.410156 C 17.332031 28.410156 17.472656 28.355469 17.585938 28.246094 C 17.976562 27.855469 18.199219 27.324219 18.199219 26.765625 Z M 18.199219 26.765625 " fill-opacity="1" fill-rule="nonzero"/></svg>